<svg width="49" height="42" viewBox="0 0 49 42" fill="none" xmlns="http://www.w3.org/2000/svg">
<path d="M13.8745 37.3851C12.7252 38.2689 11.3046 38.8159 9.74583 38.8159C5.98936 38.8159 2.93263 35.7592 2.93263 32.0027C2.93263 28.2455 5.98936 25.1886 9.74583 25.1886C12.581 25.1886 15.0125 26.9319 16.0377 29.4004L18.1712 27.1877C16.4911 24.2552 13.3676 22.2561 9.74583 22.2561C4.36251 22.2561 0 26.6196 0 32.0027C0 37.3851 4.36251 41.7485 9.74583 41.7485C12.2786 41.7485 14.5638 40.7587 16.2973 39.174C15.632 38.9507 15.0009 38.5965 14.4617 38.0772C14.2392 37.8622 14.0472 37.6274 13.8745 37.3851Z" fill="#13AE92"/>
<path d="M28.6732 22.3304L23.5125 19.333C25.814 17.8925 24.9606 18.426 27.2621 16.9855L27.1897 17.7186C27.0655 18.9664 27.9851 20.1083 29.1428 20.3429C29.1705 20.3486 38.2022 21.8837 38.5316 21.8837C39.7048 21.8837 40.7407 21.036 40.939 19.8398C41.1605 18.5082 40.2604 17.2498 38.9287 17.0295L32.2796 15.9249L32.5958 12.7518C32.9145 10.7242 33.0529 10.0884 32.2958 8.8788L31.3441 7.35718C30.1145 5.39342 27.5218 4.79295 25.5533 6.02538L15.1365 12.5473C12.5781 14.1493 11.3304 17.5269 13.4191 20.0115C14.2351 20.9824 22.169 25.8579 22.169 25.8579L15.7435 32.523C14.6189 33.6885 14.6523 35.5454 15.8189 36.669C16.3878 37.2177 17.121 37.4908 17.8541 37.4908C18.6227 37.4908 19.3902 37.1911 19.9649 36.5934L29.3107 26.9013C30.6292 25.537 30.32 23.2869 28.6732 22.3304Z" fill="#13AE92"/>
<path d="M39.6209 9.01721C41.9054 7.58625 42.5975 4.57528 41.1673 2.29183C39.7374 0.0064169 36.7264 -0.68569 34.4421 0.74439C32.1586 2.17447 31.4665 5.18436 32.8957 7.46781C34.3255 9.75332 37.3365 10.4464 39.6209 9.01721Z" fill="#13AE92"/>
<path d="M38.823 22.2561C33.3836 22.2561 29.0771 26.7438 29.0771 32.0027C29.0771 37.3851 33.4399 41.7485 38.823 41.7485C44.2051 41.7485 48.5689 37.3851 48.5689 32.0027C48.5689 26.6196 44.2051 22.2561 38.823 22.2561ZM38.823 38.8159C35.0665 38.8159 32.0098 35.7592 32.0098 32.0027C32.0098 28.2455 35.0666 25.1886 38.823 25.1886C42.5795 25.1886 45.6363 28.2455 45.6363 32.0027C45.6364 35.7592 42.5795 38.8159 38.823 38.8159Z" fill="#13AE92"/>
</svg>
