<svg width="750" height="205" viewBox="0 0 750 205" fill="none" xmlns="http://www.w3.org/2000/svg">
<g filter="url(#filter0_f_12_56)">
<path d="M16 71.1665L24.5262 80.3897C33.1024 89.268 50.4042 108.232 67.3569 121.765C84.3596 135.815 101.262 144.435 118.714 126.333C135.667 108.232 152.619 61.6848 170.071 61.9434C186.974 61.6848 203.976 108.232 220.929 121.765C238.231 135.815 255.333 116.851 272.286 126.333C289.538 135.815 306.69 172.018 323.643 158.485C340.795 144.435 358.047 80.6483 375 84.9581C392.102 89.268 409.404 122.909 426.357 159.37C443.36 196.177 460.262 196.177 477.714 173.162C497.036 151.133 506.47 142.515 527.249 130.382C549.168 119.247 562.976 135.815 579.929 117.11C597.231 98.7498 614.333 43.5833 631.286 34.3601C648.538 25.4817 665.69 61.6848 682.643 66.598C699.795 71.1665 717.047 43.5833 725.524 29.7916L734 16" stroke="url(#paint0_linear_12_56)" stroke-width="7" stroke-linecap="round"/>
</g>
<defs>
<filter id="filter0_f_12_56" x="0.5" y="0.499512" width="749" height="204.006" filterUnits="userSpaceOnUse" color-interpolation-filters="sRGB">
<feFlood flood-opacity="0" result="BackgroundImageFix"/>
<feBlend mode="normal" in="SourceGraphic" in2="BackgroundImageFix" result="shape"/>
<feGaussianBlur stdDeviation="6" result="effect1_foregroundBlur_12_56"/>
</filter>
<linearGradient id="paint0_linear_12_56" x1="48.5" y1="56" x2="744.423" y2="16" gradientUnits="userSpaceOnUse">
<stop stop-color="#013442"/>
<stop offset="0.0885417" stop-color="#5BC4FF"/>
<stop offset="0.875" stop-color="#FF5BEF"/>
<stop offset="1" stop-color="#01323F"/>
</linearGradient>
</defs>
</svg>
