<svg width="51" height="46" viewBox="0 0 51 46" fill="none" xmlns="http://www.w3.org/2000/svg">
<path d="M11.755 4.37158H4.37177C3.56632 4.37158 2.91455 5.02335 2.91455 5.8288C2.91455 6.63426 3.56632 7.28602 4.37177 7.28602H11.755C12.5605 7.28602 13.2122 6.63426 13.2122 5.8288C13.2122 5.02335 12.5605 4.37158 11.755 4.37158Z" fill="#13AE92"/>
<path d="M11.755 16.0295H4.37177C3.56632 16.0295 2.91455 16.6813 2.91455 17.4868C2.91455 18.2922 3.56632 18.944 4.37177 18.944H11.755C12.5605 18.944 13.2122 18.2922 13.2122 17.4868C13.2122 16.6813 12.5605 16.0295 11.755 16.0295Z" fill="#13AE92"/>
<path d="M8.84047 10.2004H1.45722C0.651766 10.2004 0 10.8522 0 11.6577C0 12.4631 0.651766 13.1149 1.45722 13.1149H8.84047C9.64593 13.1149 10.2977 12.4631 10.2977 11.6577C10.2977 10.8522 9.64593 10.2004 8.84047 10.2004Z" fill="#13AE92"/>
<path d="M46.3577 16.9533L37.3826 17.3414L37.1308 11.518C37.0202 8.96091 33.7833 7.752 31.9901 9.67865L20.6594 21.8365C19.5528 23.0239 19.6325 24.8664 20.8375 25.9538L27.9107 32.3369L19.9986 40.8266C18.892 42.014 18.9716 43.8566 20.1766 44.944C21.3815 46.0313 23.254 45.9505 24.3606 44.763L34.2757 34.1242C35.3823 32.9367 35.3026 31.0942 34.0976 30.0068L27.0244 23.6237L31.5171 18.803L31.5909 20.5091C31.6605 22.117 33.0417 23.3635 34.6757 23.2928L46.6095 22.7767C48.2435 22.706 49.5119 21.345 49.4424 19.737C49.3728 18.1291 47.9916 16.8826 46.3577 16.9533Z" fill="#13AE92"/>
<path d="M27.2153 2.67553C26.0569 1.90564 24.52 2.05796 23.538 3.03984L15.5233 11.0545C14.3848 12.193 14.3848 14.0373 15.5233 15.1758C16.6618 16.3142 18.5061 16.3141 19.6446 15.1757L25.9701 8.85016L28.1009 10.3851L30.948 7.53808C31.4242 7.06186 31.9859 6.69222 32.6002 6.40359L27.2153 2.67553Z" fill="#13AE92"/>
<path d="M19.2913 27.4366C18.5529 26.6982 18.06 25.7894 17.8001 24.8066L2.40806 40.1987C1.26958 41.3372 1.26958 43.1814 2.40806 44.3199C3.54644 45.4583 5.39079 45.4584 6.52927 44.3199L21.3519 29.4972L19.2913 27.4366Z" fill="#13AE92"/>
<path d="M39.442 8.74332C41.8564 8.74332 43.8136 6.78606 43.8136 4.37166C43.8136 1.95726 41.8564 0 39.442 0C37.0276 0 35.0703 1.95726 35.0703 4.37166C35.0703 6.78606 37.0276 8.74332 39.442 8.74332Z" fill="#13AE92"/>
</svg>
