<svg width="50" height="39" viewBox="0 0 50 39" fill="none" xmlns="http://www.w3.org/2000/svg">
<path d="M35.3105 25.5607L32.9103 21.6922C35.4293 24.8221 40.0904 24.9776 42.8115 22.084C45.2962 19.442 45.1693 15.2928 42.527 12.8077C39.886 10.3239 35.736 10.4498 33.2508 13.0924C31.3417 15.1225 30.9954 18.0091 32.0703 20.3382L26.2641 10.9804L34.8802 8.49404C37.556 7.72193 38.8206 4.65904 37.4611 2.22288C36.4739 0.45404 34.425 -0.389205 32.479 0.172437L19.4348 3.9365C16.0527 4.91254 14.5381 8.84404 16.3952 11.8373L20.3378 18.1917L13.4233 22.4819C21.7419 22.6731 27.7524 25.2058 35.3105 25.5607Z" fill="#13AE92"/>
<path d="M1.86421 29.871C20.774 24.4956 27.9156 35.3475 48.8642 29.8793C49.6464 29.6752 50.1149 28.8756 49.9107 28.0935C49.7066 27.3114 48.907 26.843 48.1249 27.047C27.9987 32.3008 20.8472 21.4315 1.0638 27.0553C0.286321 27.2763 -0.164866 28.0858 0.0561415 28.8634C0.277247 29.641 1.08702 30.092 1.86421 29.871Z" fill="#13AE92"/>
<path d="M48.1249 33.8774C27.9617 39.1408 20.8864 28.2506 1.0638 33.8857C0.286321 34.1067 -0.164866 34.9161 0.0561415 35.6937C0.277149 36.4713 1.08693 36.9225 1.86421 36.7014C20.774 31.326 27.9156 42.1779 48.8642 36.7097C49.6464 36.5055 50.1149 35.7059 49.9107 34.9239C49.7066 34.1417 48.907 33.6732 48.1249 33.8774Z" fill="#13AE92"/>
</svg>
